<svg width="32" height="32" viewBox="0 0 32 32" fill="none" xmlns="http://www.w3.org/2000/svg">
<g clip-path="url(#clip0_6_87)">
<path fill-rule="evenodd" clip-rule="evenodd" d="M16.2 -17.1956L16.4828 -16.9128L-14.9128 14.4832L-15.1956 14.2L16.2 -17.1956ZM17.4784 -15.7812L17.7612 -15.4984L-13.6344 15.8972L-13.9172 15.6144L17.4788 -15.7816L17.4784 -15.7812ZM19.04 -14.084L18.7572 -14.3668L-12.6384 17.0284L-12.3556 17.3116L19.0404 -14.0844L19.04 -14.084ZM20.036 -12.9528L20.3184 -12.67L-11.0772 18.7256L-11.36 18.4424L20.036 -12.9528ZM21.5968 -11.256L21.314 -11.5388L-10.0816 19.8572L-9.79876 20.1396L21.5968 -11.256ZM22.5928 -10.1244L22.8752 -9.84162L-8.51996 21.554L-8.80316 21.2712L22.5928 -10.1244ZM24.1536 -8.42722L23.8708 -8.71002L-7.52476 22.6856L-7.24196 22.9684L24.154 -8.42762L24.1536 -8.42722ZM25.1496 -7.29602L25.432 -7.01322L-5.96316 24.3824L-6.24596 24.0996L25.1492 -7.29642L25.1496 -7.29602ZM26.7104 -5.59922L26.4276 -5.88202L-4.96796 25.514L-4.68476 25.7964L26.7104 -5.59922ZM27.7064 -4.46722L27.9892 -4.18482L-3.40676 27.2108L-3.68916 26.928L27.7056 -4.46802L27.7064 -4.46722ZM29.2676 -2.77042L28.9844 -3.05322L-2.41076 28.3424L-2.12796 28.6252L29.2676 -2.77082V-2.77042ZM30.2628 -1.63922L30.546 -1.35642L-0.849957 30.0392L-1.13236 29.7564L30.2628 -1.64002V-1.63922ZM31.824 0.0579815L31.5412 -0.224817L0.145243 31.1704L0.428443 31.4532L31.824 0.0579815ZM32.8196 1.18918L33.1024 1.47198L1.70644 32.868L1.42404 32.5848L32.8196 1.18918ZM34.3808 2.88638L34.098 2.60358L2.70204 33.9992L2.98524 34.282L34.3808 2.88638ZM35.3764 4.01758L35.6592 4.30038L4.26324 35.6964L3.98084 35.4132L35.3764 4.01758ZM36.9376 5.71478L36.6548 5.43198L5.25884 36.8272L5.54204 37.11L36.9376 5.71478ZM37.9332 6.84598L38.216 7.12878L6.82044 38.5248L6.53764 38.2416L37.9332 6.84598ZM39.4944 8.54318L39.2116 8.26038L7.81604 39.656L8.09884 39.9388L39.4944 8.54318ZM40.49 9.67438L40.7728 9.95718L9.37724 41.3528L9.09444 41.07L40.49 9.67438ZM42.0512 11.3716L41.7684 11.0888L10.3728 42.4844L10.6556 42.7672L42.0512 11.3716ZM43.0468 12.5028L43.3296 12.7856L11.934 44.1812L11.6512 43.8984L43.0468 12.5024V12.5028ZM44.608 14.2L44.3252 13.9172L12.9296 45.3128L13.2124 45.5956L44.608 14.2Z" fill="#EB4B4B"/>
</g>
<defs>
<clipPath id="clip0_6_87">
<rect width="32" height="32" rx="16" fill="white"/>
</clipPath>
</defs>
</svg>
