<svg width="35" height="35" viewBox="0 0 35 35" fill="none" xmlns="http://www.w3.org/2000/svg">
<rect x="0.5" y="0.5" width="34" height="34" rx="4.5" stroke="white"/>
<path d="M29.4314 14.4349C29.3532 15.5068 28.316 16.6719 26.9098 16.5787C25.8071 16.5067 24.6775 15.4668 24.7834 14.1287C24.8616 13.1327 25.8185 11.967 27.2254 12.0602C28.6316 12.1534 29.5096 13.3631 29.4314 14.4349ZM26.988 18.7996L22.812 21.7869C22.812 22.0165 22.7615 22.2908 22.7338 22.3994C22.1686 24.6183 20.5278 25.1563 19.5027 25.1563C17.7701 25.0797 16.5879 24.1603 16.1151 22.5531L8.49968 19.494C7.86696 19.8881 7.07072 20.0472 6.25672 19.9933C4.70903 19.8908 3.07035 18.4734 3.30354 16.319C3.47416 14.7538 5.00975 13.4083 6.71313 13.5208C8.4165 13.634 9.54687 14.7591 9.80849 16.0334L17.5341 19.1079C18.1647 18.725 18.5578 18.5713 19.5034 18.5713L22.5013 14.357C22.5013 14.2944 22.4921 14.0275 22.5013 13.9036C22.6698 11.4996 24.8602 9.68675 27.3946 9.85452C29.9277 10.0223 31.7953 12.0615 31.7163 14.5115C31.6381 17.0387 29.4307 18.8775 26.988 18.7996ZM8.91202 15.6699C8.53452 14.9096 7.82786 14.3364 6.71455 14.2638C5.65883 14.1932 4.26897 14.9362 4.07773 16.3203C3.89076 17.6678 4.80003 18.9594 6.25743 19.1891C6.51194 19.229 7.02949 19.2423 7.60321 19.0932L5.70504 18.3303C4.94719 17.9554 4.72396 17.0786 5.15336 16.0334C5.73276 15.1566 6.63137 14.6133 8.05393 15.331L8.91202 15.6699ZM24.0746 14.0648C23.9438 15.9322 25.3777 17.1725 26.833 17.2684C28.2499 17.3616 30.089 16.3783 30.2198 14.5121C30.2995 13.0568 29.2729 11.4244 27.3051 11.2952C25.2576 11.2173 24.076 12.8265 24.0746 14.0648ZM21.9468 22.171C22.1622 20.6424 20.7951 19.3375 19.5048 19.3375C19.2944 19.3229 18.7953 19.3375 18.4803 19.4907L20.328 20.2057C21.2551 20.7583 21.4741 21.9413 20.9579 22.7961C20.8214 23.0043 20.6421 23.185 20.4305 23.3278C20.2189 23.4707 19.9792 23.5728 19.7252 23.6283C19.4715 23.6832 19.2086 23.6901 18.952 23.6486C18.6954 23.6071 18.4502 23.5181 18.2308 23.3867L17.0613 22.936C17.5341 23.8554 18.6801 24.3926 19.5041 24.3926C20.328 24.3926 21.7051 23.882 21.9468 22.171Z" fill="white"/>
</svg>
