<svg width="32" height="32" viewBox="0 0 32 32" fill="none" xmlns="http://www.w3.org/2000/svg">
<path d="M3 16C3 23.1795 8.82053 29 16 29C23.1795 29 29 23.1795 29 16C29 8.82053 23.1795 3 16 3C8.82053 3 3 8.82053 3 16Z" fill="#1A1B1D" stroke="#8D8D8D" stroke-width="2"/>
<path fill-rule="evenodd" clip-rule="evenodd" d="M21.8567 7.89362C20.1533 6.65946 18.1031 5.99659 16 6.00001C13.77 6.00001 11.71 6.73044 10.0467 7.96449L15.9175 13.9913L21.8567 7.89362ZM8.00834 9.98817C6.70195 11.7195 5.99673 13.8306 6.00001 16C6.00001 18.2813 6.76418 20.3851 8.05001 22.0677L13.9125 16.0492L8.00834 9.98817ZM10.1025 24.0772C11.8136 25.33 13.8797 26.0036 16 26C18.0792 26.0034 20.1074 25.3555 21.8 24.1472L15.9167 18.1079L10.1025 24.0772ZM23.8767 22.1619C25.2556 20.4046 26.0035 18.2342 26 16C26 13.7003 25.2242 11.5824 23.9192 9.89311L17.9225 16.0492L23.8767 22.1619Z" fill="#E0CB94"/>
</svg>
